<svg width="218" height="67" viewBox="0 0 218 67" fill="none" xmlns="http://www.w3.org/2000/svg">
<g clip-path="url(#clip0_1_2)">
<path d="M49.1816 19.25V47.75L24.5 62L-0.181641 47.75V19.25L24.5 5L10.8975 18.8789H38.1025L24.5 5L49.1816 19.25ZM16.9395 34.1279V47.8359L24.5566 54.6895L32.1748 47.8359V34.1279L24.5566 27.2744L16.9395 34.1279Z" fill="#1A1A1A"/>
<path d="M61.88 49V21H77.84C80.2933 21 82.36 21.28 84.04 21.84C85.7467 22.4 87.0267 23.1867 87.88 24.2C88.7333 25.2133 89.16 26.44 89.16 27.88C89.16 29.4267 88.6933 30.76 87.76 31.88C86.8267 32.9733 85.4133 33.7333 83.52 34.16L83.72 33.44C84.92 33.7067 86.04 34.1333 87.08 34.72C88.1467 35.28 89 36.04 89.64 37C90.3067 37.96 90.64 39.1333 90.64 40.52C90.64 42.2267 90.28 43.6267 89.56 44.72C88.84 45.8133 87.8933 46.68 86.72 47.32C85.5467 47.9333 84.2667 48.3733 82.88 48.64C81.52 48.88 80.1867 49 78.88 49H61.88ZM68.28 43.32H79.04C79.9733 43.32 80.8 43.2133 81.52 43C82.2667 42.7867 82.8533 42.4533 83.28 42C83.7333 41.52 83.96 40.92 83.96 40.2C83.96 39.3733 83.68 38.7467 83.12 38.32C82.56 37.8667 81.88 37.56 81.08 37.4C80.28 37.2133 79.5333 37.12 78.84 37.12H68.28V43.32ZM68.28 32H77.92C78.8 32 79.5733 31.8933 80.24 31.68C80.9333 31.4667 81.4667 31.16 81.84 30.76C82.24 30.36 82.44 29.8533 82.44 29.24C82.44 28.3067 81.9733 27.6533 81.04 27.28C80.1333 26.88 79.0133 26.68 77.68 26.68H68.28V32ZM98.2259 49L112.146 21H118.546L132.386 49H125.346L117.066 32.4C116.773 31.8133 116.506 31.2667 116.266 30.76C116.026 30.2267 115.799 29.72 115.586 29.24C115.373 28.7333 115.173 28.24 114.986 27.76C114.826 27.2533 114.653 26.7333 114.466 26.2L116.026 26.16C115.839 26.72 115.639 27.2667 115.426 27.8C115.239 28.3067 115.026 28.8133 114.786 29.32C114.573 29.8267 114.346 30.3467 114.106 30.88C113.866 31.3867 113.613 31.9067 113.346 32.44L105.106 49H98.2259ZM104.666 44.04L106.906 38.92H123.666L124.586 44.04H104.666ZM141.919 49V21H148.399L168.679 41L167.759 40.8C167.599 39.7867 167.466 38.8133 167.359 37.88C167.279 36.9467 167.212 36.0533 167.159 35.2C167.106 34.3467 167.066 33.52 167.039 32.72C167.012 31.92 166.986 31.12 166.959 30.32C166.959 29.52 166.959 28.72 166.959 27.92V21H173.559V49H166.999L146.079 28.36L147.719 28.64C147.799 29.04 147.866 29.4933 147.919 30C147.999 30.5067 148.066 31.08 148.119 31.72C148.199 32.36 148.266 33.08 148.319 33.88C148.399 34.6533 148.452 35.52 148.479 36.48C148.506 37.44 148.519 38.4933 148.519 39.64V49H141.919ZM188.11 49V43H195.63V27H188.11V21H209.99V27H202.43V43H209.99V49H188.11Z" fill="#1A1A1A"/>
</g>
<defs>
<clipPath id="clip0_1_2">
<rect width="218" height="67" fill="white"/>
</clipPath>
</defs>
</svg>
